<?xml version="1.0"?>
<svg xmlns="http://www.w3.org/2000/svg" xmlns:xlink="http://www.w3.org/1999/xlink" xmlns:svgjs="http://svgjs.com/svgjs" version="1.1" width="512" height="512" x="0" y="0" viewBox="0 0 512 512" style="enable-background:new 0 0 512 512" xml:space="preserve" class=""><g>
<g xmlns="http://www.w3.org/2000/svg">
	<g>
		<path d="M345.099,14.627c-32.808,0.11-63.379,9.719-89.107,26.221l-0.012-0.018c-25.726-16.493-56.294-26.096-89.097-26.203    C75.038,14.327-0.001,89.112,0,180.957C0,224.975,17.1,265,45.018,294.751l0.001,0.001l175.892,187.431    c9.095,9.692,21.795,15.19,35.086,15.191c13.293,0,25.994-5.498,35.091-15.191L466.98,294.752    C494.9,265.001,512,224.976,512,180.957C512.001,89.104,436.951,14.318,345.099,14.627z M326.871,255.684    c10.061,10.061,10.061,26.373,0,36.433c-5.03,5.031-11.623,7.546-18.216,7.546s-13.186-2.515-18.217-7.545L256,257.68    l-34.438,34.438c-5.03,5.029-11.624,7.545-18.217,7.545c-6.594,0-13.186-2.514-18.216-7.546c-10.061-10.06-10.061-26.372,0-36.433    l34.438-34.438l-34.438-34.438c-10.061-10.061-10.061-26.372,0-36.433c10.06-10.061,26.372-10.061,36.433,0L256,184.814    l34.438-34.438c10.061-10.061,26.372-10.061,36.433,0c10.061,10.061,10.061,26.372,0,36.433l-34.438,34.438L326.871,255.684z" fill="#dfc80a" data-original="#000000" style="" class=""/>
	</g>
</g>
<g xmlns="http://www.w3.org/2000/svg">
</g>
<g xmlns="http://www.w3.org/2000/svg">
</g>
<g xmlns="http://www.w3.org/2000/svg">
</g>
<g xmlns="http://www.w3.org/2000/svg">
</g>
<g xmlns="http://www.w3.org/2000/svg">
</g>
<g xmlns="http://www.w3.org/2000/svg">
</g>
<g xmlns="http://www.w3.org/2000/svg">
</g>
<g xmlns="http://www.w3.org/2000/svg">
</g>
<g xmlns="http://www.w3.org/2000/svg">
</g>
<g xmlns="http://www.w3.org/2000/svg">
</g>
<g xmlns="http://www.w3.org/2000/svg">
</g>
<g xmlns="http://www.w3.org/2000/svg">
</g>
<g xmlns="http://www.w3.org/2000/svg">
</g>
<g xmlns="http://www.w3.org/2000/svg">
</g>
<g xmlns="http://www.w3.org/2000/svg">
</g>
</g></svg>
